<svg id="Layer_1" data-name="Layer 1" xmlns="http://www.w3.org/2000/svg" xmlns:xlink="http://www.w3.org/1999/xlink" viewBox="0 0 417 533.1"><defs><style>.cls-1,.cls-3{fill:none;}.cls-2{fill:#eb1d25;}.cls-2,.cls-3,.cls-4{fill-rule:evenodd;}.cls-4,.cls-5,.cls-6,.cls-7,.cls-8,.cls-9{stroke-miterlimit:10;}.cls-4{stroke-width:0.1px;fill:url(#New_Gradient_Swatch_2);stroke:url(#New_Gradient_Swatch_2-2);}.cls-5,.cls-6,.cls-7,.cls-8,.cls-9{stroke-width:7px;}.cls-5{fill:url(#New_Gradient_Swatch_2-3);stroke:url(#New_Gradient_Swatch_2-4);}.cls-6{fill:url(#New_Gradient_Swatch_2-5);stroke:url(#New_Gradient_Swatch_2-6);}.cls-7{fill:url(#New_Gradient_Swatch_2-7);stroke:url(#New_Gradient_Swatch_2-8);}.cls-8{fill:url(#New_Gradient_Swatch_2-9);stroke:url(#New_Gradient_Swatch_2-10);}.cls-9{fill:url(#New_Gradient_Swatch_2-11);stroke:url(#New_Gradient_Swatch_2-12);}</style><linearGradient id="New_Gradient_Swatch_2" x1="129.82" y1="279.89" x2="484.7" y2="279.89" gradientUnits="userSpaceOnUse"><stop offset="0" stop-color="#0e1626"/><stop offset="1" stop-color="#25314a"/></linearGradient><linearGradient id="New_Gradient_Swatch_2-2" x1="129.77" y1="279.89" x2="484.75" y2="279.89" xlink:href="#New_Gradient_Swatch_2"/><linearGradient id="New_Gradient_Swatch_2-3" x1="149.62" y1="619.02" x2="149.62" y2="496.5" xlink:href="#New_Gradient_Swatch_2"/><linearGradient id="New_Gradient_Swatch_2-4" x1="149.62" y1="622.52" x2="149.62" y2="493" xlink:href="#New_Gradient_Swatch_2"/><linearGradient id="New_Gradient_Swatch_2-5" x1="434.12" y1="558.05" x2="528" y2="558.05" xlink:href="#New_Gradient_Swatch_2"/><linearGradient id="New_Gradient_Swatch_2-6" x1="481.06" y1="621.32" x2="481.06" y2="494.78" xlink:href="#New_Gradient_Swatch_2"/><linearGradient id="New_Gradient_Swatch_2-7" x1="198.81" y1="558.05" x2="262.21" y2="558.05" xlink:href="#New_Gradient_Swatch_2"/><linearGradient id="New_Gradient_Swatch_2-8" x1="230.51" y1="621.32" x2="230.51" y2="494.78" xlink:href="#New_Gradient_Swatch_2"/><linearGradient id="New_Gradient_Swatch_2-9" x1="354.65" y1="555.79" x2="417.84" y2="555.79" xlink:href="#New_Gradient_Swatch_2"/><linearGradient id="New_Gradient_Swatch_2-10" x1="386.24" y1="619.06" x2="386.24" y2="492.51" xlink:href="#New_Gradient_Swatch_2"/><linearGradient id="New_Gradient_Swatch_2-11" x1="281.38" y1="559.55" x2="334.46" y2="559.55" xlink:href="#New_Gradient_Swatch_2"/><linearGradient id="New_Gradient_Swatch_2-12" x1="307.92" y1="622.83" x2="307.92" y2="496.28" xlink:href="#New_Gradient_Swatch_2"/></defs><title>cobra</title><path class="cls-1" d="M318.91,134.45c13.91,3,34.47,26.1,60.07,23.55s51.87-22.39,68.92-15.13,5.55,1.38-3.4,2.35-12.35,1.41-6.22,2.89a20.18,20.18,0,0,1,12,8.72c1.62,2.79-6.29-5.77-14.43-6.67S392.6,161.92,381,161.22,351.66,160.24,318.91,134.45Z" transform="translate(-114.5 -89.73)"/><path class="cls-2" d="M318.91,134.45c13.91,3,34.47,26.1,60.07,23.55s51.87-22.39,68.92-15.13,5.55,1.38-3.4,2.35-12.35,1.41-6.22,2.89a20.18,20.18,0,0,1,12,8.72c1.62,2.79-6.29-5.77-14.43-6.67S392.6,161.92,381,161.22,351.66,160.24,318.91,134.45Z" transform="translate(-114.5 -89.73)"/><path class="cls-3" d="M320.71,131c.64,8.11,9.22,9.22,17,16.38s22.4,21.38,26.41,23.67,6-.85,6.77-2.27,1.63-1.64,1.29.56-.17,5.35,2.2,5.55,5.53-1.9,6.39-4.13,1.67-1.19,1.75.45-.83,5.29,1.1,5.24,1.12,5.16-5.46,4.58-35.09-12.21-42.09-17.89c-34.8-28.23-99.39-5.37-128.07,20.91A147.28,147.28,0,0,0,341.78,436C453,409.25,495.06,253.61,409.18,166.39c38.6,7.15,65.51,63.86,70.58,85a177.25,177.25,0,0,1-131,213.74C253.59,488,158.36,428.19,135,334.14c-15.54-62.68,4.58-125.39,47.49-167.79,24.26-24,88.46-58.09,106.24-62.4,15.69-5.43,38.83-18.29,56.47-12.86s12.42-5.06,33,3.54,26.23,14.6,24.62,21.9-3.17,3-5.09,6.35-5.1,17.68-13.1,20.22,6.29-5.28,4.36-16.45-3.11,5.88-11.8,9,5.65-5.33,3.06-12.68S363,113.68,347,119.08,320.45,127.8,320.71,131Zm34.65-29.47c-10.4-.31-25-2.55-28.72-4.6C329.91,102.34,344,107.32,355.36,101.55Z" transform="translate(-114.5 -89.73)"/><path class="cls-4" d="M341,150.44c8.06,7.55,19.63,18.63,23.13,20.63,4,2.3,6-.85,6.77-2.27s1.63-1.64,1.29.56-.17,5.35,2.2,5.55,5.53-1.9,6.39-4.13,1.67-1.19,1.75.45-.83,5.29,1.1,5.24,1.12,5.16-5.46,4.58c-5.51-.48-26.42-8.73-37.17-14.73V150.44Zm0,285.7V466.8c2.59-.5,5.19-1.05,7.79-1.68a177.25,177.25,0,0,0,131-213.74c-5.07-21.13-32-77.84-70.58-85C495.06,253.61,453,409.25,341.78,436l-.78.18Zm0-346a30.25,30.25,0,0,1,4.24,1c17.65,5.43,12.42-5.06,33,3.54s26.23,14.6,24.62,21.9-3.17,3-5.09,6.35-5.1,17.68-13.1,20.22,6.29-5.28,4.36-16.45-3.11,5.88-11.8,9,5.65-5.33,3.06-12.68S363,113.68,347,119.08l-6,2V103.94a25.3,25.3,0,0,0,14.36-2.39A137,137,0,0,1,341,100.27ZM320.71,131c.64,8.11,9.22,9.22,17,16.38l3.28,3v15.88a36.13,36.13,0,0,1-4.92-3.16c-34.8-28.23-99.39-5.37-128.07,20.91A147.28,147.28,0,0,0,341,436.14V466.8c-92.55,17.88-183.28-41.17-206-132.66-15.54-62.68,4.58-125.39,47.49-167.79,24.26-24,88.46-58.09,106.24-62.4C303.23,99,324,87.63,341,90.14v10.13c-6.47-.9-12.21-2.14-14.36-3.32,1.93,3.19,7.66,6.23,14.36,7V121.1C328.41,125.35,320.48,128.23,320.71,131Z" transform="translate(-114.5 -89.73)"/><path class="cls-5" d="M178.5,619a60.68,60.68,0,0,1-42.78-17.4,58.47,58.47,0,0,1-17.72-42,65,65,0,0,1,17.64-43.77,62,62,0,0,1,19.2-14,55.77,55.77,0,0,1,23.66-5.3,2.7,2.7,0,1,1,0,5.4c-29.3,0-55,27-55,57.71,0,29.79,24.67,54,55,54a2.7,2.7,0,1,1,0,5.4Z" transform="translate(-114.5 -89.73)"/><path class="cls-6" d="M525.37,617.82a2.62,2.62,0,0,1-2.48-1.76L485.24,508.17,439.16,616.23a2.63,2.63,0,0,1-4.83-2.06l48.74-114.3a2.63,2.63,0,0,1,4.9.17l39.88,114.29a2.61,2.61,0,0,1-2.48,3.49Z" transform="translate(-114.5 -89.73)"/><path class="cls-7" d="M230.51,617.82a31.73,31.73,0,0,1-31.7-31.69V530a31.7,31.7,0,0,1,63.4,0v56.16A31.73,31.73,0,0,1,230.51,617.82Zm0-114.33A26.51,26.51,0,0,0,204,530v56.16a26.48,26.48,0,0,0,53,0V530A26.51,26.51,0,0,0,230.51,503.49Z" transform="translate(-114.5 -89.73)"/><path class="cls-8" d="M412.46,615.56a2.61,2.61,0,0,1-2.09-1.06l-43.32-58.87a2.61,2.61,0,0,1,2.1-4.14h17.09c11,0,18.78-4,23.1-11.89a28,28,0,0,0,3.3-12,26.4,26.4,0,1,0-52.79,0v85.32a2.6,2.6,0,1,1-5.2,0V527.61a31.6,31.6,0,1,1,63.19,0,33.08,33.08,0,0,1-3.94,14.49c-3.65,6.66-11.4,14.59-27.66,14.59H374.29l40.27,54.73a2.61,2.61,0,0,1-.56,3.64A2.58,2.58,0,0,1,412.46,615.56Z" transform="translate(-114.5 -89.73)"/><path class="cls-9" d="M301.56,619.33H284a2.64,2.64,0,0,1,0-5.28h17.54c14.2,0,24.82-14.57,24.82-27.6a24.85,24.85,0,0,0-24.82-24.81,2.64,2.64,0,1,1,0-5.28h2.8a24.85,24.85,0,0,0,24.82-24.82c0-14.11-11.6-26.48-24.82-26.48h-17.7v26.57a2.64,2.64,0,1,1-5.28,0V502.42a2.64,2.64,0,0,1,2.64-2.64h20.34a28.91,28.91,0,0,1,21.35,9.73,32.9,32.9,0,0,1,8.75,22,30.14,30.14,0,0,1-19.27,28.08,30.14,30.14,0,0,1,16.47,26.83A34.76,34.76,0,0,1,323,609C317.12,615.66,309.52,619.33,301.56,619.33Z" transform="translate(-114.5 -89.73)"/></svg>